<svg width="80" height="81" viewBox="0 0 80 81" fill="none" xmlns="http://www.w3.org/2000/svg">
<mask id="mask0_48_191" style="mask-type:alpha" maskUnits="userSpaceOnUse" x="0" y="0" width="80" height="81">
<rect y="0.5" width="80" height="80" fill="#D9D9D9"/>
</mask>
<g mask="url(#mask0_48_191)">
<path d="M32.3334 61.25L28.8334 57.75L36.5001 50.0834L28.8334 42.4167L32.3334 38.9167L40.0001 46.5834L47.6668 38.9167L51.1668 42.4167L43.5001 50.0834L51.1668 57.75L47.6668 61.25L40.0001 53.5834L32.3334 61.25ZM17.6667 72.1667C16.0001 72.1667 14.5834 71.5834 13.4167 70.4167C12.2501 69.25 11.6667 67.8334 11.6667 66.1667V21.5C11.6667 19.8334 12.2501 18.4167 13.4167 17.25C14.5834 16.0834 16.0001 15.5 17.6667 15.5H22.3334V8.41669H27.4167V15.5H52.6668V8.41669H57.6667V15.5H62.3334C64.0001 15.5 65.4168 16.0834 66.5834 17.25C67.7501 18.4167 68.3334 19.8334 68.3334 21.5V66.1667C68.3334 67.8334 67.7501 69.25 66.5834 70.4167C65.4168 71.5834 64.0001 72.1667 62.3334 72.1667H17.6667ZM17.6667 67.1667H62.3334C62.5556 67.1667 62.7779 67.0556 63.0001 66.8334C63.2223 66.6111 63.3334 66.3889 63.3334 66.1667V34.8334H16.6667V66.1667C16.6667 66.3889 16.7779 66.6111 17.0001 66.8334C17.2223 67.0556 17.4445 67.1667 17.6667 67.1667ZM16.6667 29.8334H63.3334V21.5C63.3334 21.2778 63.2223 21.0556 63.0001 20.8334C62.7779 20.6111 62.5556 20.5 62.3334 20.5H17.6667C17.4445 20.5 17.2223 20.6111 17.0001 20.8334C16.7779 21.0556 16.6667 21.2778 16.6667 21.5V29.8334Z" fill="#030445"/>
</g>
</svg>
