<svg width="81" height="80" viewBox="0 0 81 80" fill="none" xmlns="http://www.w3.org/2000/svg">
<mask id="mask0_48_178" style="mask-type:alpha" maskUnits="userSpaceOnUse" x="0" y="0" width="81" height="80">
<rect x="0.5" width="80" height="80" fill="#D9D9D9"/>
</mask>
<g mask="url(#mask0_48_178)">
<path d="M28.4999 55.5L40.4999 43.5L52.4999 55.5L55.9999 52L43.9999 40L55.9999 28L52.4999 24.5L40.4999 36.5L28.4999 24.5L24.9999 28L36.9999 40L24.9999 52L28.4999 55.5ZM40.4999 71.6667C36.111 71.6667 31.9866 70.8333 28.1266 69.1667C24.2644 67.5 20.9166 65.25 18.0833 62.4167C15.2499 59.5833 12.9999 56.2356 11.3333 52.3733C9.66659 48.5133 8.83325 44.3889 8.83325 40C8.83325 35.6111 9.66659 31.4856 11.3333 27.6233C12.9999 23.7633 15.2499 20.4167 18.0833 17.5833C20.9166 14.75 24.2644 12.5 28.1266 10.8333C31.9866 9.16668 36.111 8.33334 40.4999 8.33334C44.8888 8.33334 49.0144 9.16668 52.8766 10.8333C56.7366 12.5 60.0833 14.75 62.9166 17.5833C65.7499 20.4167 67.9999 23.7633 69.6666 27.6233C71.3333 31.4856 72.1666 35.6111 72.1666 40C72.1666 44.3889 71.3333 48.5133 69.6666 52.3733C67.9999 56.2356 65.7499 59.5833 62.9166 62.4167C60.0833 65.25 56.7366 67.5 52.8766 69.1667C49.0144 70.8333 44.8888 71.6667 40.4999 71.6667ZM40.4999 66.6667C47.9444 66.6667 54.2499 64.0833 59.4166 58.9167C64.5832 53.75 67.1666 47.4445 67.1666 40C67.1666 32.5556 64.5832 26.25 59.4166 21.0833C54.2499 15.9167 47.9444 13.3333 40.4999 13.3333C33.0555 13.3333 26.7499 15.9167 21.5833 21.0833C16.4166 26.25 13.8333 32.5556 13.8333 40C13.8333 47.4445 16.4166 53.75 21.5833 58.9167C26.7499 64.0833 33.0555 66.6667 40.4999 66.6667Z" fill="#AE2816"/>
</g>
</svg>
