<svg width="33" height="14" viewBox="0 0 33 14" fill="none" xmlns="http://www.w3.org/2000/svg">
<g clip-path="url(#clip0_101_6)">
<path fill-rule="evenodd" clip-rule="evenodd" d="M-402 -107C-410.837 -107 -418 -99.8366 -418 -91V-15C-418 -6.163 -410.837 1 -402 1H0.368011L13.631 12.723C15.286 14.186 17.97 14.186 19.625 12.723L32.887 1H36C44.837 1 52 -6.163 52 -15V-91C52 -99.8366 44.837 -107 36 -107H-402Z" fill="white"/>
<mask id="mask0_101_6" style="mask-type:luminance" maskUnits="userSpaceOnUse" x="-418" y="-107" width="470" height="121">
<path fill-rule="evenodd" clip-rule="evenodd" d="M-402 -107C-410.837 -107 -418 -99.8366 -418 -91V-15C-418 -6.163 -410.837 1 -402 1H0.368011L13.631 12.723C15.286 14.186 17.97 14.186 19.625 12.723L32.887 1H36C44.837 1 52 -6.163 52 -15V-91C52 -99.8366 44.837 -107 36 -107H-402Z" fill="#C6E7FE"/>
</mask>
<g mask="url(#mask0_101_6)">
<path d="M0.368011 1L1.03101 0.250999L0.747009 0H0.368011V1ZM32.887 1V0H32.509L32.225 0.250999L32.887 1ZM-417 -91C-417 -99.2843 -410.284 -106 -402 -106V-108C-411.389 -108 -419 -100.389 -419 -91H-417ZM-417 -15V-91H-419V-15H-417ZM-402 0C-410.284 0 -417 -6.716 -417 -15H-419C-419 -5.611 -411.389 2 -402 2V0ZM0.368011 0H-402V2H0.368011V0ZM-0.294006 1.749L12.969 13.472L14.293 11.974L1.03101 0.250999L-0.294006 1.749ZM12.969 13.472C15.002 15.27 18.254 15.27 20.287 13.472L18.963 11.974C17.686 13.103 15.57 13.103 14.293 11.974L12.969 13.472ZM20.287 13.472L33.55 1.749L32.225 0.250999L18.963 11.974L20.287 13.472ZM36 0H32.887V2H36V0ZM51 -15C51 -6.716 44.284 0 36 0V2C45.389 2 53 -5.611 53 -15H51ZM51 -91V-15H53V-91H51ZM36 -106C44.284 -106 51 -99.2843 51 -91H53C53 -100.389 45.389 -108 36 -108V-106ZM-402 -106H36V-108H-402V-106Z" fill="#C6E7FE"/>
</g>
</g>
<defs>
<clipPath id="clip0_101_6">
<rect width="33" height="14" fill="white"/>
</clipPath>
</defs>
</svg>
