<svg width="102" height="29" viewBox="0 0 102 29" fill="none" xmlns="http://www.w3.org/2000/svg">
<rect width="101.066" height="28.1665" transform="translate(0.934082 0.416748)" fill="#FFC915"/>
<path d="M41.1016 24.5629C39.3862 24.3615 37.9996 23.7184 36.8856 22.6079C35.5081 21.2355 34.7768 19.3851 34.7768 17.2708C34.7768 13.0208 37.7925 9.905 41.8982 9.91178C42.9808 9.91372 44.0604 10.1699 45.0136 10.6522C45.468 10.8823 46.0493 11.275 46.3567 11.5598C46.4732 11.6678 46.5796 11.7559 46.593 11.7559C46.6063 11.7559 46.6178 11.3961 46.6178 10.9568V10.1568H48.3958V24.3847H46.6178V22.7377L46.4555 22.8743C45.2632 23.8767 44.1778 24.3649 42.7392 24.5465C42.4242 24.5862 41.387 24.5968 41.1016 24.5629ZM42.7411 22.6796C44.8904 22.3135 46.3806 20.773 46.8054 18.4776C46.9042 17.9454 46.9066 16.6064 46.8102 16.0819C46.6975 15.4703 46.5467 15.001 46.2961 14.4828C45.5563 12.9535 44.2528 12.0266 42.5159 11.7941C41.9145 11.7133 41.0362 11.7651 40.4615 11.9147C38.7857 12.3511 37.4932 13.583 36.908 15.3027C36.6651 16.017 36.6159 16.3482 36.6159 17.2708C36.6159 17.9802 36.6288 18.1483 36.7099 18.5178C37.1968 20.7246 38.7576 22.299 40.8357 22.6811C41.2672 22.76 42.2724 22.7595 42.7411 22.6796ZM25.594 24.5058C24.4055 24.3794 23.3077 23.9876 22.3689 23.3557C21.8438 23.0021 21.0229 22.1643 20.6649 21.6171C19.7905 20.2796 19.3709 18.6747 19.4325 16.9018C19.4888 15.2901 19.9308 13.9138 20.789 12.6789C20.914 12.4983 21.2353 12.1283 21.5016 11.8561C22.4538 10.8857 23.6003 10.2711 24.9821 9.99072C25.5386 9.87788 26.7839 9.83527 27.3629 9.90888C30.0301 10.2498 32.0281 12.0619 32.7144 14.7637C32.8815 15.4218 32.9569 15.9821 32.986 16.7889L33.0113 17.496H21.2267L21.2534 17.9163C21.3727 19.7851 22.4414 21.4592 24.037 22.2767C24.7912 22.6631 25.5105 22.8312 26.415 22.8322C27.9662 22.8341 29.138 22.3479 30.1141 21.299C30.358 21.037 30.9083 20.2868 31.0033 20.0878C31.0152 20.0631 32.5545 21.0854 32.5545 21.1178C32.5545 21.2171 31.924 22.0685 31.576 22.438C30.2911 23.8036 28.6989 24.4767 26.634 24.5266C26.256 24.5363 25.7883 24.5266 25.594 24.5058ZM31.1603 15.723C30.8257 13.5855 29.3881 12.0358 27.3615 11.6285C26.9347 11.5428 25.8317 11.5525 25.4016 11.646C24.3802 11.8682 23.5282 12.3167 22.8204 13.0053C22.071 13.7346 21.5718 14.6504 21.3045 15.7845L21.2777 15.8974H31.187L31.1603 15.723ZM84.625 24.5029C81.5288 24.2104 79.2301 22.0815 78.6072 18.9313C78.1838 16.7875 78.5767 14.5521 79.6682 12.8997C80.7135 11.3162 82.2032 10.337 84.1306 9.96408C84.6747 9.859 86.2927 9.85948 86.8073 9.96554C88.0931 10.2304 89.1566 10.7985 90.042 11.6944C91.3188 12.9855 91.9999 14.8116 91.9999 16.941V17.496L86.13 17.5066L80.2606 17.5168L80.2711 17.8451C80.314 19.1367 80.9154 20.4873 81.86 21.4108C82.5922 22.1271 83.4805 22.5803 84.5167 22.7677C84.9773 22.8506 85.9667 22.8501 86.4302 22.7677C87.8664 22.5091 88.9065 21.7929 89.7962 20.4486C89.9231 20.2568 90.042 20.1043 90.0606 20.1096C90.1083 20.1222 91.4853 21.021 91.544 21.0781C91.6061 21.1377 91.2271 21.7174 90.7837 22.2413C89.3675 23.9116 87.1156 24.7387 84.625 24.5029ZM90.1809 15.7845C90.1809 15.7226 90.1455 15.5226 90.1026 15.34C89.6167 13.2838 88.1857 11.9147 86.2011 11.6062C85.4446 11.4886 84.542 11.5694 83.7764 11.8242C82.1206 12.3748 80.8405 13.7671 80.4009 15.494C80.357 15.6669 80.3212 15.8281 80.3212 15.8523C80.3212 15.8843 81.7388 15.8974 85.2513 15.8974H90.1818L90.1813 15.7845H90.1809ZM10.9341 17.25V10.1161H19.3399V11.7966L16.036 11.8072L12.7326 11.8174L12.7221 18.1013L12.712 24.3847H10.9341V17.25ZM51.5073 14.3797V4.41675H53.3258V24.3436H51.5073V14.3797ZM56.4379 17.2291V10.1152H58.2158L58.2177 11.0484L58.2196 11.9811L58.3695 11.7971C58.8635 11.1878 59.3728 10.7593 59.9494 10.4672C60.6367 10.1186 61.2414 9.9665 62.0953 9.92486C63.0805 9.87788 63.8819 10.0329 64.6618 10.4212C65.489 10.8329 66.0842 11.4246 66.645 12.3937C66.6832 12.4605 66.7071 12.4421 66.8526 12.2251C67.6168 11.0895 68.7537 10.3384 70.178 10.0285C70.7427 9.90549 71.9832 9.8929 72.5302 10.0043C73.5301 10.2091 74.3177 10.6212 74.9692 11.2818C75.6627 11.985 76.0885 12.8319 76.35 14.0266L76.4584 14.523L76.4717 19.4335L76.4846 24.3431H74.7038V19.9604C74.7038 17.2277 74.6881 15.418 74.6618 15.1531C74.4957 13.4697 73.637 12.2532 72.2949 11.799C71.7682 11.623 71.2102 11.5645 70.6591 11.6276C68.9279 11.8179 67.8091 12.768 67.4182 14.3797C67.3352 14.7216 67.3333 14.8213 67.3194 19.5357L67.3051 24.3431H65.5305V20.0442C65.5305 17.4747 65.5138 15.5371 65.489 15.2281C65.3238 13.1612 64.2055 11.8513 62.419 11.6309C60.789 11.4295 59.0969 12.3951 58.4831 13.878C58.2263 14.4964 58.2411 14.1758 58.2263 19.4955L58.213 24.3436H56.4374V17.2296L56.4379 17.2291Z" fill="black"/>
</svg>
