<svg version="1.1" xmlns="http://www.w3.org/2000/svg" xmlns:xlink="http://www.w3.org/1999/xlink">

    <symbol viewBox="0 0 20 20" id="back-link">
        <path d="M8.33333 18.3333L0 10L8.33333 1.66667L9.8125 3.14584L2.95833 10L9.8125 16.8542L8.33333 18.3333Z" />
    </symbol>

    <symbol viewBox="0 0 30 30" id="form-input-hint">
        <path d="M14.9375 22.5C15.375 22.5 15.745 22.3487 16.0475 22.0462C16.3492 21.7446 16.5 21.375 16.5 20.9375C16.5 20.5 16.3492 20.1304 16.0475 19.8288C15.745 19.5263 15.375 19.375 14.9375 19.375C14.5 19.375 14.13 19.5263 13.8275 19.8288C13.5258 20.1304 13.375 20.5 13.375 20.9375C13.375 21.375 13.5258 21.7446 13.8275 22.0462C14.13 22.3487 14.5 22.5 14.9375 22.5ZM13.8125 17.6875H16.125C16.125 17 16.2033 16.4583 16.36 16.0625C16.5158 15.6667 16.9583 15.125 17.6875 14.4375C18.2292 13.8958 18.6562 13.38 18.9688 12.89C19.2812 12.4008 19.4375 11.8125 19.4375 11.125C19.4375 9.95833 19.0104 9.0625 18.1562 8.4375C17.3021 7.8125 16.2917 7.5 15.125 7.5C13.9375 7.5 12.9742 7.8125 12.235 8.4375C11.495 9.0625 10.9792 9.8125 10.6875 10.6875L12.75 11.5C12.8542 11.125 13.0887 10.7188 13.4537 10.2813C13.8179 9.84375 14.375 9.625 15.125 9.625C15.7917 9.625 16.2917 9.80708 16.625 10.1713C16.9583 10.5363 17.125 10.9375 17.125 11.375C17.125 11.7917 17 12.1821 16.75 12.5462C16.5 12.9112 16.1875 13.25 15.8125 13.5625C14.8958 14.375 14.3333 14.9896 14.125 15.4062C13.9167 15.8229 13.8125 16.5833 13.8125 17.6875ZM15 27.5C13.2708 27.5 11.6458 27.1717 10.125 26.515C8.60417 25.8592 7.28125 24.9688 6.15625 23.8438C5.03125 22.7188 4.14083 21.3958 3.485 19.875C2.82833 18.3542 2.5 16.7292 2.5 15C2.5 13.2708 2.82833 11.6458 3.485 10.125C4.14083 8.60417 5.03125 7.28125 6.15625 6.15625C7.28125 5.03125 8.60417 4.14042 10.125 3.48375C11.6458 2.82792 13.2708 2.5 15 2.5C16.7292 2.5 18.3542 2.82792 19.875 3.48375C21.3958 4.14042 22.7188 5.03125 23.8438 6.15625C24.9688 7.28125 25.8592 8.60417 26.515 10.125C27.1717 11.6458 27.5 13.2708 27.5 15C27.5 16.7292 27.1717 18.3542 26.515 19.875C25.8592 21.3958 24.9688 22.7188 23.8438 23.8438C22.7188 24.9688 21.3958 25.8592 19.875 26.515C18.3542 27.1717 16.7292 27.5 15 27.5ZM15 25C17.7917 25 20.1562 24.0312 22.0938 22.0938C24.0312 20.1562 25 17.7917 25 15C25 12.2083 24.0312 9.84375 22.0938 7.90625C20.1562 5.96875 17.7917 5 15 5C12.2083 5 9.84375 5.96875 7.90625 7.90625C5.96875 9.84375 5 12.2083 5 15C5 17.7917 5.96875 20.1562 7.90625 22.0938C9.84375 24.0312 12.2083 25 15 25Z" />
    </symbol>

    <symbol viewBox="0 0 49 40" id="form-input-hint-arrow">
        <rect width="34.0211" height="33.0689" rx="4" transform="matrix(0.775317 -0.631573 -0.775317 -0.631573 24.2773 41.0021)" />
    </symbol>

    <symbol viewBox="0 0 30 30" id="input-file">
        <path d="M14.375 27.5C12.4583 27.5 10.8333 26.8333 9.5 25.5C8.16667 24.1667 7.5 22.5417 7.5 20.625V7.5C7.5 6.125 7.98958 4.94792 8.96875 3.96875C9.94792 2.98958 11.125 2.5 12.5 2.5C13.875 2.5 15.0521 2.98958 16.0312 3.96875C17.0104 4.94792 17.5 6.125 17.5 7.5V19.375C17.5 20.25 17.1979 20.9896 16.5938 21.5938C15.9896 22.1979 15.25 22.5 14.375 22.5C13.5 22.5 12.7604 22.1979 12.1563 21.5938C11.5521 20.9896 11.25 20.25 11.25 19.375V7.5H13.125V19.375C13.125 19.7292 13.245 20.0258 13.485 20.265C13.7242 20.505 14.0208 20.625 14.375 20.625C14.7292 20.625 15.0263 20.505 15.2663 20.265C15.5054 20.0258 15.625 19.7292 15.625 19.375V7.5C15.625 6.625 15.3229 5.88542 14.7187 5.28125C14.1146 4.67708 13.375 4.375 12.5 4.375C11.625 4.375 10.8854 4.67708 10.2813 5.28125C9.67708 5.88542 9.375 6.625 9.375 7.5V20.625C9.375 22 9.86458 23.1771 10.8438 24.1562C11.8229 25.1354 13 25.625 14.375 25.625C15.75 25.625 16.9271 25.1354 17.9062 24.1562C18.8854 23.1771 19.375 22 19.375 20.625V7.5H21.25V20.625C21.25 22.5417 20.5833 24.1667 19.25 25.5C17.9167 26.8333 16.2917 27.5 14.375 27.5Z" />
    </symbol>

    <symbol viewBox="0 0 18 18" id="input-file-remove">
        <path d="M4.8002 13.9875L4.0127 13.2L8.2127 8.99998L4.0127 4.79998L4.8002 4.01248L9.0002 8.21248L13.2002 4.01248L13.9877 4.79998L9.7877 8.99998L13.9877 13.2L13.2002 13.9875L9.0002 9.78748L4.8002 13.9875Z" />
    </symbol>

</svg>