<svg width="80" height="80" viewBox="0 0 80 80" fill="none" xmlns="http://www.w3.org/2000/svg">
<mask id="mask0_48_163" style="mask-type:alpha" maskUnits="userSpaceOnUse" x="0" y="0" width="80" height="80">
<rect width="80" height="80" fill="#D9D9D9"/>
</mask>
<g mask="url(#mask0_48_163)">
<path d="M35.2526 54.1667L57.6693 31.75L54.1693 28.25L35.2526 47.1667L25.7526 37.6667L22.2526 41.1667L35.2526 54.1667ZM40.0026 71.6667C35.6137 71.6667 31.4893 70.8333 27.6293 69.1667C23.767 67.5 20.4193 65.25 17.5859 62.4167C14.7526 59.5833 12.5026 56.2356 10.8359 52.3733C9.16927 48.5133 8.33594 44.3889 8.33594 40C8.33594 35.6111 9.16927 31.4856 10.8359 27.6233C12.5026 23.7633 14.7526 20.4167 17.5859 17.5833C20.4193 14.75 23.767 12.5 27.6293 10.8333C31.4893 9.16668 35.6137 8.33334 40.0026 8.33334C44.3915 8.33334 48.517 9.16668 52.3793 10.8333C56.2393 12.5 59.5859 14.75 62.4193 17.5833C65.2526 20.4167 67.5026 23.7633 69.1693 27.6233C70.8359 31.4856 71.6693 35.6111 71.6693 40C71.6693 44.3889 70.8359 48.5133 69.1693 52.3733C67.5026 56.2356 65.2526 59.5833 62.4193 62.4167C59.5859 65.25 56.2393 67.5 52.3793 69.1667C48.517 70.8333 44.3915 71.6667 40.0026 71.6667ZM40.0026 66.6667C47.447 66.6667 53.7526 64.0833 58.9193 58.9167C64.0859 53.75 66.6693 47.4445 66.6693 40C66.6693 32.5556 64.0859 26.25 58.9193 21.0833C53.7526 15.9167 47.447 13.3333 40.0026 13.3333C32.5582 13.3333 26.2526 15.9167 21.0859 21.0833C15.9193 26.25 13.3359 32.5556 13.3359 40C13.3359 47.4445 15.9193 53.75 21.0859 58.9167C26.2526 64.0833 32.5582 66.6667 40.0026 66.6667Z" fill="#6D8D51"/>
</g>
</svg>
